<svg xmlns="http://www.w3.org/2000/svg" viewBox="0 0 800 600" role="img" aria-label="Placeholder image for Transitional (Cardboard) Cathedral">
  <defs>
    <linearGradient id="g-transitional-cathedral" x1="0" y1="0" x2="1" y2="1">
      <stop offset="0" stop-color="#b45309" />
      <stop offset="1" stop-color="#78350f" />
    </linearGradient>
  </defs>
  <rect width="800" height="600" fill="url(#g-transitional-cathedral)" />
  
    <g opacity="0.9">
      <rect x="300" y="180" width="200" height="300" fill="white" fill-opacity="0.14" />
      <rect x="330" y="210" width="30" height="30" fill="white" fill-opacity="0.3" />
      <rect x="385" y="210" width="30" height="30" fill="white" fill-opacity="0.3" />
      <rect x="440" y="210" width="30" height="30" fill="white" fill-opacity="0.3" />
      <rect x="330" y="260" width="30" height="30" fill="white" fill-opacity="0.3" />
      <rect x="385" y="260" width="30" height="30" fill="white" fill-opacity="0.3" />
      <rect x="440" y="260" width="30" height="30" fill="white" fill-opacity="0.3" />
      <rect x="330" y="310" width="30" height="30" fill="white" fill-opacity="0.3" />
      <rect x="385" y="310" width="30" height="30" fill="white" fill-opacity="0.3" />
      <rect x="440" y="310" width="30" height="30" fill="white" fill-opacity="0.3" />
      <rect x="330" y="360" width="30" height="30" fill="white" fill-opacity="0.3" />
      <rect x="385" y="360" width="30" height="30" fill="white" fill-opacity="0.3" />
      <rect x="440" y="360" width="30" height="30" fill="white" fill-opacity="0.3" />
      <rect x="380" y="410" width="40" height="70" fill="white" fill-opacity="0.4" />
    </g>
  
  <text x="400" y="260" text-anchor="middle" font-family="DM Sans, Arial, sans-serif" font-size="220" font-weight="900" fill="white" fill-opacity="0.18">T</text>
  <text x="24" y="572" font-family="Arial, sans-serif" font-size="20" font-weight="700" letter-spacing="2" fill="white" fill-opacity="0.55">PLACEHOLDER PHOTO</text>
</svg>
